# xmcd CD database file
#
# Track frame offsets:
#	187
#	7862
#	16255
#	60152
#	85055
#	110735
#	136132
#	166717
#	188857
#	222880
#
# Disc length: 3066 seconds
#
# Revision: 0
# Processed by: cddbd v1.5.2PL0 Copyright (c) Steve Scherf et al.
# Submitted via: CDex 1.99.1
#
DISCID=6f0bf80a
DTITLE=Bill Evvan,Dianne Reeves, Randy Brecker, other  -  Echoes Of Allington Vol.1 1987  (Japan Print - Other Titel) 
DYEAR=1987
DGENRE=Jazz
TTITLE0=01 Jazzvision Theme (Kellaway)
TTITLE1=02 Introduction By Shelley Duvall
TTITLE2=03 It Don't Mean A Thing (Ellington, Mills)
TTITLE3=04 In A Sentimental Mood (Ellington, Mills, Kurtz))
TTITLE4=05 Prelude To A Kiss (Ellington, Mills, Gordon)
TTITLE5=06 Ring Dem Bells (Ellington, Mills)
TTITLE6=07 I Got It Bad (And That Ain't Good)
TTITLE7=08 I'm Just A Lucky So And So (Ellington-David)
TTITLE8=09 Medley - Do Nothin' Til You Hear From Me, Don't Get Around Much Anymore (Ellington, Russel)
TTITLE9=10 Closing Theme
EXTD=YEAR: 1987
EXTT0=
EXTT1=
EXTT2=
EXTT3=
EXTT4=
EXTT5=
EXTT6=
EXTT7=
EXTT8=
EXTT9=
PLAYORDER=
